<svg width="323" height="63" fill="none" xmlns="http://www.w3.org/2000/svg"><circle cx="40.5" cy="31.5" r="31.5" fill="#34D544"/><mask id="a" maskUnits="userSpaceOnUse" x="0" y="0" width="63" height="63"><circle cx="31.5" cy="31.5" r="31.5" fill="#34D544"/></mask><g mask="url(#a)"><path fill="#F8F4D3" d="M46 0h9v63h-9z"/></g><path d="M73.75 24.6c-.8-1.467-1.9-2.583-3.3-3.35-1.4-.767-3.033-1.15-4.9-1.15-2.067 0-3.9.467-5.5 1.4-1.6.933-2.85 2.267-3.75 4-.9 1.733-1.35 3.733-1.35 6 0 2.333.45 4.367 1.35 6.1.933 1.733 2.217 3.067 3.85 4 1.633.933 3.533 1.4 5.7 1.4 2.667 0 4.85-.7 6.55-2.1 1.7-1.433 2.817-3.417 3.35-5.95h-12V29.6h18.9v6.1c-.467 2.433-1.467 4.683-3 6.75s-3.517 3.733-5.95 5c-2.4 1.233-5.1 1.85-8.1 1.85-3.367 0-6.417-.75-9.15-2.25-2.7-1.533-4.833-3.65-6.4-6.35-1.533-2.7-2.3-5.767-2.3-9.2 0-3.433.767-6.5 2.3-9.2 1.567-2.733 3.7-4.85 6.4-6.35 2.733-1.533 5.767-2.3 9.1-2.3 3.933 0 7.35.967 10.25 2.9 2.9 1.9 4.9 4.583 6 8.05h-8.05zm21.079 1c.9-1.467 2.067-2.617 3.5-3.45 1.467-.833 3.133-1.25 5-1.25v7.35h-1.85c-2.2 0-3.867.517-5 1.55-1.1 1.033-1.65 2.833-1.65 5.4V49h-7V21.3h7v4.3zm38.965 8.95c0 1-.067 1.9-.2 2.7h-20.25c.166 2 .866 3.567 2.1 4.7 1.233 1.133 2.75 1.7 4.55 1.7 2.6 0 4.45-1.117 5.55-3.35h7.55c-.8 2.667-2.334 4.867-4.6 6.6-2.267 1.7-5.05 2.55-8.35 2.55-2.667 0-5.067-.583-7.2-1.75-2.1-1.2-3.75-2.883-4.95-5.05-1.167-2.167-1.75-4.667-1.75-7.5 0-2.867.583-5.383 1.75-7.55 1.166-2.167 2.8-3.833 4.9-5 2.1-1.167 4.516-1.75 7.25-1.75 2.633 0 4.983.567 7.05 1.7a11.731 11.731 0 014.85 4.85c1.166 2.067 1.75 4.45 1.75 7.15zm-7.25-2c-.034-1.8-.684-3.233-1.95-4.3-1.267-1.1-2.817-1.65-4.65-1.65-1.734 0-3.2.533-4.4 1.6-1.167 1.033-1.884 2.483-2.15 4.35h13.15zm38.109 2c0 1-.067 1.9-.2 2.7h-20.25c.167 2 .867 3.567 2.1 4.7s2.75 1.7 4.55 1.7c2.6 0 4.45-1.117 5.55-3.35h7.55c-.8 2.667-2.333 4.867-4.6 6.6-2.267 1.7-5.05 2.55-8.35 2.55-2.667 0-5.067-.583-7.2-1.75-2.1-1.2-3.75-2.883-4.95-5.05-1.167-2.167-1.75-4.667-1.75-7.5 0-2.867.583-5.383 1.75-7.55s2.8-3.833 4.9-5c2.1-1.167 4.517-1.75 7.25-1.75 2.633 0 4.983.567 7.05 1.7a11.725 11.725 0 014.85 4.85c1.167 2.067 1.75 4.45 1.75 7.15zm-7.25-2c-.033-1.8-.683-3.233-1.95-4.3-1.267-1.1-2.817-1.65-4.65-1.65-1.733 0-3.2.533-4.4 1.6-1.167 1.033-1.883 2.483-2.15 4.35h13.15zm27.71-11.65c3.3 0 5.966 1.05 8 3.15 2.033 2.067 3.05 4.967 3.05 8.7V49h-7V33.7c0-2.2-.55-3.883-1.65-5.05-1.1-1.2-2.6-1.8-4.5-1.8-1.934 0-3.467.6-4.6 1.8-1.1 1.167-1.65 2.85-1.65 5.05V49h-7V21.3h7v3.45c.933-1.2 2.116-2.133 3.55-2.8 1.466-.7 3.066-1.05 4.8-1.05zm16.006 10.6c0-3.433.767-6.5 2.3-9.2 1.567-2.733 3.683-4.85 6.35-6.35 2.7-1.533 5.717-2.3 9.05-2.3 3.9 0 7.317 1 10.25 3s4.983 4.767 6.15 8.3h-8.05c-.8-1.667-1.933-2.917-3.4-3.75-1.433-.833-3.1-1.25-5-1.25-2.033 0-3.85.483-5.45 1.45-1.567.933-2.8 2.267-3.7 4-.867 1.733-1.3 3.767-1.3 6.1 0 2.3.433 4.333 1.3 6.1.9 1.733 2.133 3.083 3.7 4.05 1.6.933 3.417 1.4 5.45 1.4 1.9 0 3.567-.417 5-1.25 1.467-.867 2.6-2.133 3.4-3.8h8.05c-1.167 3.567-3.217 6.35-6.15 8.35-2.9 1.967-6.317 2.95-10.25 2.95-3.333 0-6.35-.75-9.05-2.25-2.667-1.533-4.783-3.65-6.35-6.35-1.533-2.7-2.3-5.767-2.3-9.2zm52.379 17.95c-2.667 0-5.067-.583-7.2-1.75-2.133-1.2-3.817-2.883-5.05-5.05-1.2-2.167-1.8-4.667-1.8-7.5s.617-5.333 1.85-7.5c1.267-2.167 2.983-3.833 5.15-5 2.167-1.2 4.583-1.8 7.25-1.8s5.083.6 7.25 1.8c2.167 1.167 3.867 2.833 5.1 5 1.267 2.167 1.9 4.667 1.9 7.5s-.65 5.333-1.95 7.5c-1.267 2.167-3 3.85-5.2 5.05-2.167 1.167-4.6 1.75-7.3 1.75zm0-6.1c1.267 0 2.45-.3 3.55-.9 1.133-.633 2.033-1.567 2.7-2.8.667-1.233 1-2.733 1-4.5 0-2.633-.7-4.65-2.1-6.05-1.367-1.433-3.05-2.15-5.05-2.15s-3.683.717-5.05 2.15c-1.333 1.4-2 3.417-2 6.05s.65 4.667 1.95 6.1c1.333 1.4 3 2.1 5 2.1zm26.585-17.75c.9-1.467 2.066-2.617 3.5-3.45 1.466-.833 3.133-1.25 5-1.25v7.35h-1.85c-2.2 0-3.867.517-5 1.55-1.1 1.033-1.65 2.833-1.65 5.4V49h-7V21.3h7v4.3zm20.215-.3c.9-1.267 2.133-2.317 3.7-3.15 1.6-.867 3.416-1.3 5.45-1.3 2.366 0 4.5.583 6.4 1.75 1.933 1.167 3.45 2.833 4.55 5 1.133 2.133 1.7 4.617 1.7 7.45s-.567 5.35-1.7 7.55c-1.1 2.167-2.617 3.85-4.55 5.05-1.9 1.2-4.034 1.8-6.4 1.8-2.034 0-3.834-.417-5.4-1.25-1.534-.833-2.784-1.883-3.75-3.15V62.2h-7V21.3h7v4zm14.65 9.75c0-1.667-.35-3.1-1.05-4.3-.667-1.233-1.567-2.167-2.7-2.8a7.09 7.09 0 00-3.6-.95c-1.267 0-2.467.333-3.6 1-1.1.633-2 1.567-2.7 2.8-.667 1.233-1 2.683-1 4.35 0 1.667.333 3.117 1 4.35.7 1.233 1.6 2.183 2.7 2.85a7.268 7.268 0 003.6.95c1.3 0 2.5-.333 3.6-1 1.133-.667 2.033-1.617 2.7-2.85.7-1.233 1.05-2.7 1.05-4.4z" fill="#213053"/></svg>